<svg xmlns="http://www.w3.org/2000/svg" viewBox="0 0 100 100" width="100" height="100">
  <circle cx="50" cy="50" r="44" fill="#0f172a" />
  <circle cx="50" cy="50" r="41" fill="#1e293b" />
  <circle cx="50" cy="50" r="14" fill="#ffffff" />
  <circle cx="50" cy="50" r="12" fill="#ef4444" />
  <circle cx="34" cy="30" r="8" fill="#22c55e" />
  <circle cx="34" cy="30" r="5" fill="#86efac" />
  <circle cx="28" cy="44" r="8" fill="#15803d" />
  <circle cx="28" cy="44" r="5" fill="#86efac" />
  <rect x="58" y="24" width="7" height="22" rx="2" fill="#f97316" transform="rotate(30 58 24)" />
  <rect x="70" y="32" width="7" height="22" rx="2" fill="#ea580c" transform="rotate(45 70 32)" />
  <rect x="56" y="65" width="7" height="22" rx="2" fill="#f8fafc" transform="rotate(-30 56 65)" />
  <rect x="68" y="52" width="7" height="22" rx="2" fill="#e2e8f0" transform="rotate(-45 68 52)" />
  <circle cx="36" cy="68" r="8" fill="#22c55e" />
  <circle cx="36" cy="68" r="5" fill="#86efac" />
</svg>
