<svg xmlns="http://www.w3.org/2000/svg" viewBox="0 0 100 100" width="100" height="100">
  <rect x="8" y="15" width="84" height="70" rx="10" fill="#0f172a" />
  <rect x="12" y="19" width="76" height="62" rx="6" fill="#1e293b" />
  <circle cx="50" cy="50" r="10" fill="#ffffff" />
  <circle cx="50" cy="50" r="8" fill="#ef4444" />
  <rect x="20" y="26" width="3" height="15" fill="#fbbf24" transform="rotate(-15 20 26)" />
  <rect x="25" y="24" width="3" height="18" fill="#f59e0b" />
  <rect x="30" y="26" width="3" height="16" fill="#fbbf24" transform="rotate(10 30 26)" />
  <circle cx="68" cy="30" r="5" fill="#dc2626" />
  <circle cx="76" cy="32" r="5" fill="#ea580c" />
  <path d="M22 64 C18 58, 30 54, 28 66 Z" fill="#d97706" />
  <path d="M28 60 C24 54, 36 50, 34 62 Z" fill="#b45309" />
  <rect x="58" y="58" width="22" height="6" rx="2" fill="#d97706" transform="rotate(-15 58 58)" />
  <rect x="62" y="65" width="22" height="6" rx="2" fill="#b45309" transform="rotate(5 62 65)" />
</svg>
