<svg xmlns="http://www.w3.org/2000/svg" viewBox="0 0 100 100" width="100" height="100">
  <path d="M64 45 L68 80 L84 80 L88 45 Z" fill="#ef4444" />
  <rect x="60" y="40" width="32" height="6" rx="2" fill="#cbd5e1" />
  <path d="M76 40 L76 22 L84 22" fill="none" stroke="#22c55e" stroke-width="3" stroke-linecap="round" />
  <rect x="42" y="55" width="22" height="25" rx="2" fill="#e2e8f0" />
  <rect x="44" y="42" width="3" height="15" fill="#fbbf24" />
  <rect x="49" y="38" width="3" height="20" fill="#f59e0b" />
  <rect x="54" y="40" width="3" height="18" fill="#fbbf24" />
  <rect x="59" y="44" width="3" height="14" fill="#d97706" />
  <path d="M15 78 Q35 84 55 78 L55 75 L15 75 Z" fill="#d97706" />
  <rect x="12" y="68" width="46" height="7" rx="3" fill="#78350f" />
  <path d="M12 69 L48 69 L46 72 L38 69 L30 73 L15 69 Z" fill="#fbbf24" />
  <path d="M15 62 Q35 42 55 62 Z" fill="#d97706" />
  <circle cx="28" cy="54" r="1" fill="#fef08a" />
  <circle cx="36" cy="50" r="1" fill="#fef08a" />
  <circle cx="44" cy="54" r="1" fill="#fef08a" />
</svg>
