<svg xmlns="http://www.w3.org/2000/svg" viewBox="0 0 100 100" width="100" height="100">
  <path d="M15 65 C15 80, 85 80, 85 65 Z" fill="#e2e8f0" />
  <rect x="25" y="45" width="5" height="30" rx="1.5" fill="#fbbf24" transform="rotate(-30 25 45)" />
  <rect x="35" y="40" width="5" height="30" rx="1.5" fill="#f59e0b" transform="rotate(-10 35 40)" />
  <rect x="45" y="38" width="5" height="32" rx="1.5" fill="#fbbf24" />
  <rect x="55" y="40" width="5" height="30" rx="1.5" fill="#f59e0b" transform="rotate(15 55 40)" />
  <rect x="65" y="45" width="5" height="30" rx="1.5" fill="#fbbf24" transform="rotate(35 65 45)" />
  <path d="M22 55 Q35 42 50 52 Q65 40 78 55 Q60 62 22 55 Z" fill="#eab308" />
  <circle cx="34" cy="50" r="5" fill="#15803d" />
  <circle cx="34" cy="50" r="2" fill="#eab308" />
  <circle cx="50" cy="48" r="5" fill="#16a34a" />
  <circle cx="50" cy="48" r="2" fill="#eab308" />
  <circle cx="62" cy="52" r="5" fill="#15803d" />
  <circle cx="62" cy="52" r="2" fill="#eab308" />
</svg>
