<svg xmlns="http://www.w3.org/2000/svg" viewBox="0 0 100 100" width="100" height="100">
  <path d="M15 65 C15 80, 85 80, 85 65 Z" fill="#cbd5e1" />
  <path d="M60 52 L62 70 L78 70 L80 52 Z" fill="#ef4444" />
  <ellipse cx="70" cy="52" rx="10" ry="3" fill="#b91c1c" />
  <rect x="20" y="42" width="35" height="10" rx="3" fill="#d97706" transform="rotate(-15 20 42)" />
  <rect x="25" y="52" width="35" height="10" rx="3" fill="#b45309" transform="rotate(5 25 52)" />
  <path d="M22 34 L38 30" stroke="#d97706" stroke-width="8" stroke-linecap="round" />
  <path d="M48 27 L58 24" stroke="#d97706" stroke-width="8" stroke-linecap="round" />
  <path d="M38 30 Q44 32 48 27 Q44 24 38 30" fill="#fef08a" />
  <path d="M38 30 Q44 28 48 27" stroke="#fbbf24" stroke-width="3" fill="none" />
</svg>
