<svg xmlns="http://www.w3.org/2000/svg" viewBox="0 0 100 100" width="100" height="100">
  <path d="M20 78 Q50 86 80 78 C80 73, 20 73, 20 78 Z" fill="#d97706" />
  <rect x="16" y="66" width="68" height="8" rx="4" fill="#78350f" />
  <path d="M16 67 L84 67 L80 72 L70 67 L50 74 L30 67 Z" fill="#fbbf24" />
  <rect x="16" y="56" width="68" height="8" rx="4" fill="#78350f" />
  <path d="M16 57 L84 57 L80 62 L70 57 L50 64 L30 57 Z" fill="#fbbf24" />
  <rect x="20" y="50" width="60" height="6" rx="3" fill="#ef4444" />
  <path d="M18 46 C25 44, 30 49, 38 46 C45 44, 52 48, 60 45 C68 43, 75 48, 82 45 Z" fill="#22c55e" />
  <path d="M20 42 Q50 14 80 42 Z" fill="#d97706" />
  <circle cx="50" cy="24" r="1.5" fill="#fef08a" />
  <circle cx="36" cy="30" r="1.5" fill="#fef08a" />
  <circle cx="64" cy="30" r="1.5" fill="#fef08a" />
  <circle cx="45" cy="35" r="1.5" fill="#fef08a" />
  <circle cx="58" cy="35" r="1.5" fill="#fef08a" />
</svg>
