<svg xmlns="http://www.w3.org/2000/svg" viewBox="0 0 100 100" width="100" height="100">
  <path d="M15 45 C15 35, 85 35, 85 45 L80 60 C80 65, 20 65, 20 60 Z" fill="#eab308" opacity="0.8" />
  <rect x="10" y="42" width="80" height="12" rx="6" fill="#b91c1c" />
  <path d="M18 48 C18 42, 82 42, 82 48 L78 63 C78 68, 22 68, 22 63 Z" fill="#d97706" />
  <path d="M15 48 Q22 42 30 48 Q38 54 45 48 Q52 42 60 48 Q68 54 75 48 Q82 42 85 48" fill="none" stroke="#fbbf24" stroke-width="4" stroke-linecap="round" />
</svg>
