<svg xmlns="http://www.w3.org/2000/svg" viewBox="0 0 100 100" width="100" height="100">
  <path d="M15 45 C15 35, 85 35, 85 45 L80 60 C80 65, 20 65, 20 60 Z" fill="#eab308" opacity="0.8" />
  <rect x="10" y="42" width="80" height="12" rx="6" fill="#b91c1c" />
  <path d="M15 45 Q30 38 45 46 Q60 38 75 46 L82 48 L80 54 Q50 58 20 54 Z" fill="#fbbf24" />
  <path d="M18 48 C18 42, 82 42, 82 48 L78 63 C78 68, 22 68, 22 63 Z" fill="#d97706" opacity="0.85" />
  <circle cx="28" cy="46" r="4.5" fill="#ef4444" />
  <circle cx="45" cy="46" r="4.5" fill="#ef4444" />
  <circle cx="62" cy="46" r="4.5" fill="#ef4444" />
</svg>
