<svg xmlns="http://www.w3.org/2000/svg" viewBox="0 0 100 100" width="100" height="100">
  <path d="M25 45 L30 85 L70 85 L75 45 Z" fill="#ef4444" />
  <path d="M33 45 L35 85 L42 85 L40 45 Z" fill="#ffffff" />
  <path d="M47 45 L47 85 L53 85 L53 45 Z" fill="#ffffff" />
  <path d="M60 45 L58 85 L65 85 L67 45 Z" fill="#ffffff" />
  <circle cx="30" cy="38" r="8" fill="#fef08a" />
  <circle cx="40" cy="32" r="9" fill="#fef08a" />
  <circle cx="50" cy="38" r="9" fill="#fef08a" />
  <circle cx="60" cy="30" r="10" fill="#fef08a" />
  <circle cx="70" cy="38" r="8" fill="#fef08a" />
  <circle cx="48" cy="25" r="9" fill="#fef08a" />
  <circle cx="32" cy="36" r="4" fill="#f59e0b" opacity="0.6" />
  <circle cx="42" cy="30" r="4" fill="#f59e0b" opacity="0.6" />
  <circle cx="62" cy="28" r="4" fill="#f59e0b" opacity="0.6" />
  <circle cx="48" cy="23" r="4" fill="#f59e0b" opacity="0.6" />
</svg>
