<svg xmlns="http://www.w3.org/2000/svg" viewBox="0 0 100 100" width="100" height="100">
  <rect x="35" y="15" width="6" height="40" rx="2" fill="#fbbf24" transform="rotate(-10 35 15)" />
  <rect x="42" y="12" width="6" height="42" rx="2" fill="#fbbf24" />
  <rect x="49" y="10" width="6" height="45" rx="2" fill="#f59e0b" />
  <rect x="56" y="14" width="6" height="40" rx="2" fill="#fbbf24" transform="rotate(8 56 14)" />
  <rect x="28" y="20" width="6" height="35" rx="2" fill="#d97706" transform="rotate(-20 28 20)" />
  <rect x="63" y="18" width="6" height="38" rx="2" fill="#d97706" transform="rotate(15 63 18)" />
  <path d="M25 45 L30 85 L70 85 L75 45 Z" fill="#ef4444" />
  <path d="M25 45 Q50 55 75 45 L70 85 L30 85 Z" fill="#dc2626" />
  <circle cx="50" cy="65" r="10" fill="#fbbf24" />
  <path d="M47 68 L53 62 M47 62 L53 68" stroke="#dc2626" stroke-width="2.5" />
</svg>
