<svg xmlns="http://www.w3.org/2000/svg" viewBox="0 0 100 100" width="100" height="100">
  <path d="M30 35 L38 85 L62 85 L70 35 Z" fill="#cbd5e1" opacity="0.5" />
  <ellipse cx="50" cy="35" rx="20" ry="4" fill="#94a3b8" opacity="0.5" />
  <rect x="36" y="25" width="6" height="30" rx="1" fill="#22c55e" transform="rotate(-15 36 25)" />
  <rect x="42" y="22" width="6" height="35" rx="1" fill="#f8fafc" />
  <rect x="52" y="20" width="6" height="32" rx="1" fill="#15803d" transform="rotate(8 52 20)" />
  <rect x="60" y="25" width="6" height="28" rx="1" fill="#f8fafc" transform="rotate(20 60 25)" />
  <path d="M32 45 Q50 50 68 45 L62 85 L38 85 Z" fill="#b91c1c" opacity="0.85" />
  <rect x="40" y="20" width="5" height="7" rx="1" fill="#ef4444" />
  <rect x="54" y="22" width="5" height="7" rx="1" fill="#eab308" />
</svg>
